<?xml version="1.0" encoding="UTF-8"?>
<svg id="Calque_1" data-name="Calque 1" xmlns="http://www.w3.org/2000/svg" viewBox="0 0 1400.47 507.11">
  <defs>
    <style>
      .cls-1 {
        fill: #fff;
      }
    </style>
  </defs>
  <g>
    <path class="cls-1" d="M198.95,176.17c-4.86-3.56-6.94-10.08-16.49-6.91-5.83,1.93-12.04,5.23-17.01,7.16-4.3,1.68-9.37,1.18-13.43,2.23-6.64,1.72-16.23,8.25-22.61,11.05-12.29,4.31-21.93,6.17-34.89,7.18-22.32.8-44.88.87-67-2.78C15.85,201.88,2.78,213.25,0,227.63c-.07.72,4.08,3.71,4.37,4.43,1.1,3.21.43,9.33.9,13.03.6,4.72,1.08,9.27,5.76,11.41,6.29,2.87,14.43-3.88,21.29-6.91,5.11-2.25,18.31-8.23,22.8-9.44,13.51-3.19,27.6-3.75,41.42-4.38,11.96-.35,18.88-4.55,29.38-9.3,2.8-1.24,13.46-4.98,16.08-5.27,7-.78,9.02,2.84,10.63,7.65,2.45,7.33,2.13,15.91-9.1,20.57-11.81,4.6-24.23,7.26-36.27,11.17-2.65.91-4.87,2.45-7.12,3.25-25.35,8.9-50.46,17.66-74.77,29.17-4.31,2.14-7.57,3.83-11.96,5.9-3.31,13.58-3.59,28.59,1.41,41.79,5.43,12.25-1.99,28.4,14.7,33.19,14.67,6.38,23.48,19.6,36.97,27.63,2.66,1.63,17.88-.82,22.89-.5,8.86.57,12.61-4.75,17.46-9.79,2.59-2.7,14.66-14.96,17.37-16.24,6.58-3.11,13.64.97,15.7,6.25,2.07,5.3,2.56,17.1,5.45,22.64,1.14,2.19,7.84,10.27,10.24,10.95,12.48,3.88,12.8-10.02,14.23-18.3,1.61-16.73,1.63-33.68,2.85-50.46.17-2.03,4.63-9.48,4.8-11.52.43-4.99-1.15-10.09-.75-14.82,1.06-12.65,1.76-25.52,4.14-38.01,2.15-6.78,9.54-10.83,14.15-16.1,6.24-6.96,10.9-16.62,14.11-25.33,2.58-6.19,6.57-19.7,9.96-24.89,1.14-1.75,2.88-1.78,4.21-3.29,1.66-1.88,6.32-11.7,6.5-13.8.92-14.37-21.66-16.62-30.85-22.17ZM112.92,335.44c-3.46,2.95-7.55,3.18-11.41,5.03-6.9,3.3-11.85,8.17-20.47,11.46-1.32.51-2.57,1.31-4.08,1.66-3.49.8-10.95-4.53-13.57-6.66-4.25-3.44-10.85-9.28-9-16.28,2.25-2.29,3.72-6.22,5.26-8.34.71-.98,5.98-7.28,6.66-7.92,8.95-7.2,20.1-2.01,30.12-1.09,6.17-.11,16.65-4.97,21.22-.8,5.19,4.75,1.81,17.38-4.73,22.94Z"/>
    <path class="cls-1" d="M1310.8,146.1c-3.55-2.62-8.88-5.36-13.22-7.04-4.34-1.68-9.37-1.11-13.77-2.63-4.4-1.53-8.96-4.75-13.07-6.32-2.72-1.04-4.81-.95-7.2-1.46-3.91-.83-7.65-2.08-11.39-2.77-5.23-.96-10.53-1.28-15.59-2.08-5.07-.8-10.36-1.71-15.14-2.32-4.78-.61-9.22-.45-13.66-1.24-4.44-.79-8.59-3.78-12.67-4.34-4.09-.55-7.63.65-11.23.68s-6.62.91-9.86,1.04c-3.24.13-6.04-.06-9.09-.09-3.05-.04-5.65.34-8.69,0-3.04-.34-5.65-1.33-8.81-2-3.16-.68-5.99-.23-9.48-1.47-3.49-1.24-6.75-4.65-10.66-6.06-3.92-1.41-8.24-.89-12.5-2.52-4.26-1.63-8.78-4.64-13.22-6.51-4.44-1.87-9.12-4.25-13.68-5.8-4.56-1.56-9.22-1.4-13.77-2.86-4.56-1.46-8.93-3.94-13.48-5.41-4.55-1.46-9.48-2.51-13.99-3.43-4.51-.91-9.35.16-13.3-2.43-5.96-3.92-4.46-6.86.03-12.16,2.74-3.23,7.94-8.03,11.27-12.13,3.33-4.11,7.92-8.75,11.95-12.43,4.03-3.69,6.96-6.31,5.62-12.57-.02-.08.88-1.15.81-1.2-3.75-2.71-8.11-4.76-12.26-6.82-4.15-2.06-8.46-2.84-12.64-4.77-4.19-1.93-7.63-5.7-12.04-7.17-4.41-1.47-9.08-.37-13.54-1.56-4.45-1.19-8.49-4.46-12.94-5.4-4.45-.95-9.29.12-13.56-.31-4.27-.42-9.47-2.68-13.18-2.47-6.43.36-10.01,2.3-13.6,7.34-3.59,5.04-2.56,10.44-1.95,16.4.6,5.96.86,11.87.72,17.83-.14,5.96.39,13.31.37,18.93-.01,5.62.93,12.16-.07,16.7-1.64,7.49-3.19,6.77-9.75,8.83-2.77.87-7.51,1.63-11.39,1.81-3.89.17-8.85-1.98-13.13-2.54-4.29-.56-8.98-.41-13.42-1.1-4.44-.69-9.1-.94-13.58-1.94-4.48-1-8.97-2.49-13.44-3.65-4.48-1.16-8.8-3.06-13.36-3.93-4.55-.87-9.17-.51-13.76-1.22-4.59-.71-8.93-1.96-13.59-2.62-4.66-.66-8.99-2.38-13.89-2.5-4.9-.12-10.15.95-15.18,1.29-5.03.34-10.1.57-15.18,1.1-5.09.53-10.32,1.59-15.44,2.09-5.12.5-10.08.58-15.23.96-5.15.39-10.18,1.4-15.46,1.4-5.28,0-10.6-1.41-16-1.46-5.4-.05-10.8,1.29-16.3,1.16-5.5-.12-10.5-2.25-16.2-2.24-4.01,0-8.34,2.28-12.57,1.8-4.23-.48-7.61-3.77-12.08-3.83-4.47-.06-9.01-.52-12.74,3.25-3.72,3.76-4.59,9.44-6.31,14.55-1.72,5.1-4.77,9.96-2.86,15.49,1.9,5.53,7.87,7.75,12.4,10.69,4.53,2.94,9.2,5.93,14.04,8.06,4.84,2.13,10.33,3.69,14.92,5.64,4.6,1.95,7.17,4.95,11.15,7.53,3.98,2.58,6.89,4.47,12.09,4.16,5.19-.32,11.9-2.36,16.85-4.13,4.94-1.78,8.99-4.44,13.85-5.25,4.87-.81,9.5-.5,14.19-1.57,4.7-1.07,8.98-3.29,13.74-3.53,4.76-.24,9.05,1.91,13.69,2.4,4.64.5,10.18,1.66,13.86,1.45,4.11-.24,9.94-3.6,15.03-4.63,5.08-1.02,10.09-2,15.2-2.43,5.12-.43,10.12.21,15.25.15,5.13-.06,10.27.04,15.45.32,5.18.28,10.42,1.43,15.6,1.92,5.18.48,10.47,1,15.62,1.42,5.15.42,10.57,1.25,15.6,1.32,5.03.06,9.93-2.13,14.58-2.55,4.65-.42,10.09-1.32,14.14-1.09,5.88.34,10.1-2.19,15.45.06,7.8,3.28,8.17,7.15,8.25,16.73.03,4.06-.5,12.33-1.59,18.54-.73,4.18-1.83,11.95-3.3,17.37-1.46,5.41-4.03,12.2-5.15,18.23-1.12,6.03-1.61,13.07-2.29,19.19-.68,6.12-1.72,13.34-2.05,19-.43,7.24.33,13.66-.3,20.32-.63,6.66-1.86,14.54-1.63,20.48.32,8.41.76,15.91,3.03,21.88,1.56,4.12,3.89,7.53,5.89,13.01,1.37,3.77,3.18,7.25,5.51,12.26,1.47,3.15,3.55,9.02,5.98,13.7,1.66,3.2,4.59,9.11,6.86,13.28,2.26,4.16,4.19,9.75,6.97,14.14,2.78,4.39,6.18,8.92,9.56,13.09,3.38,4.17,7.26,7.98,11.36,11.59,4.1,3.61,7.16,8.27,12.71,9.95,5.55,1.68,9.9.43,15.27-2.06,4.15-1.92,7.85-5.93,11.16-9.62,3.31-3.69,8.42-6.82,9.41-12.23.99-5.41-1.84-10.45-3.73-15.5-1.88-5.05-4.53-9.78-7.05-14.44-2.52-4.66-4.14-9.6-6.49-14.23-2.35-4.63-6.1-8.23-8.49-12.74-2.39-4.51-3.02-9.24-5.37-13.82-2.35-4.58-5.88-8.18-8.17-13.06-2.29-4.88-3.93-10.12-5.97-15.44-2.04-5.32-4.32-10.91-6.11-16.62-1.79-5.71-3.78-11.82-5.09-17.82-1.32-6-2.84-12.23-3.22-18.38-.38-6.15,1.67-12.2,2.06-18.18.38-5.98.47-11.75,1.45-17.52.98-5.78,2.55-11.11,4.17-16.66,1.62-5.55.67-11.68,1.98-17.28,1.31-5.59,4.37-10.3,7.74-14.54,3.37-4.24,6.66-6.54,11.73-8.34,3.75-1.33,8.37-1.77,12.51-2.29,4.14-.52,8.49-.33,12.74-.13,4.24.2,8.42.18,12.68,1.01,4.25.83,8.26,2.12,12.53,3.51,4.27,1.38,8.31,4.34,12.65,5.84,4.35,1.5,8.95,2.79,13.38,3.91,4.43,1.12,9.15,1.22,13.5,2.25,4.35,1.03,8.94,3,13.07,3.62,4.14.63,8.25-.46,11.9-.37,3.65.09,6.23,1.56,9.5,1.69,3.28.12,6,.33,9.2.09,3.2-.24,6.02-1.87,9.3-2.1,3.28-.23,6.29-.11,9.75-.13,3.46-.03,6.74-.25,10.55.03,3.81.28,7.84,1.95,12.02,2.39,4.17.43,8.85-.4,13.23-.03,4.38.36,8.86,1.44,13.32,1.78,4.45.34,8.98.62,13.47.7,4.5.08,8.86-.78,13.41-.7,4.55.08,13.24.96,13.85.28.02-.02-.01-.29,0-.3.65-.65,7.78,1.14,11.94,1.77,4.17.63,10.48,1.23,14.38,1.6,3.91.36,10.72-1.03,12.9-1.24,6.37-.6,10.48-.22,3.78-5.16Z"/>
    <path class="cls-1" d="M371.59,140.72c7.19-1.2,15.8-1.4,22.71-1.76,11.09-.58,21.99-.85,33.01.89,15.56,2.46,13-9.68,16.16-12.91,2.67-2.74,12.61,2.61,17.59,4.03,12.66,3.62,27.48,5.92,39.87,1.8,8.41-2.8,13.35-6.22,11.53-9.61-.53-.99,11.05-10.95,11.05-10.95.2.44-3.14,13.89-2.61,15.58,1.31,4.16,11.34,8.07,18.24,10.15,17.46,5.25,35.26-4.56,48.62-14.88,4.18-3.23,10.66-6.57,17.66-8.84,9.95-3.21,16.09-14.53,9.05-23.52-8.68-11.07-22.67-18.9-36.79-15.78-4.12.91-8.36,1.43-12.43,2.72-6.83,2.16-16.18,1.58-7.08-7.06,3.9-3.7,2.67-4.92,8.72-7.47,1.89-.8.85-1.5,2.4-2.39,2.01-1.15,4.9-.92,8.16-1.52,0,0,10.35,2.14,11.03,3.39.68,1.25,4.1-.24,4.58-.6.27-.2,5.16-10.25,7.94-14.87.18-.31,1.92-.6,2.1-.9.33-.55,3.22-1.49,3.53-2,1.59-2.59.09-3.45-1.21-4.28-.64-.41-13.62-3.89-14.49-4.4-1.81-1.06-6.97-1.13-11.33-.88-9.59.54-14.07,5.06-20.56,9.79-1.74,1.27-10.47,4.69-13.57,8.29-7.31,8.52-11.04,12.95-12.95,19.73-.75,2.67-2.39,8.73-1.15,11.42,1.99,4.34,16.47,9.59,24.98,8.16,5.7-.96,11.36-1.71,16.13-2.93,3.67-.94,9.6-1.56,9.86,1.9.38,4.94.74,6.74-2.55,11.6-2.02,2.99-5.7,5.6-7.86,8.54-1.92,2.62-2.93,5.94-5.76,8.21-1.17.93-5.75,4.82-6.53,5.09-1.63.57-18.13-.77-18.07-2.04.28-5.89,16.9-10.42,22.54-15.4,2.35-2.07,9.61-2.55,10.93-5.58.18-.41-.33-.52-1.01-.72-5.06-1.55-4.59-5.68-10.4-7.53-1.5-.48-1.16.82-2.41.69-4.43-.44-7.48-.73-12.07-.22-4.47.49-9.11,1.51-13.17,2.02-11.88,1.49-13.02-3.88-26.77.8-13.92,4.73-13.52,8.86-19.42,14.35-3.41,3.17-17.18,13.44-16.11,3.33.27-2.58,1.23-7.07,3.04-9.29,1.23-1.51,3.29-4.63,4.96-6.01,5.56-4.58,2.87-3.76,16.12-8.34,4.77-1.65,10.33-2.14,12.54-3.4,6.41-3.66,13.59-9.73,13.94-15.26.3-4.68-.03-10.17,2.37-13.54,2.81-3.97,3.36-13.56-17.3-13.88-5.64-.09-10.44.89-15.83,1.2-5.89.33-13.32.95-16.33,3.68-2.9,2.62-2.33,6.76-5.24,9.33-2.75,2.42-7.93,4.25-9.79,7.1-1.81,2.78-5.81,5.39-6.27,8.66-.36,2.54-1.71,5.27-2.28,7.76-.64,2.81,2.75,6.97,2.42,9.96-.36,3.19-3.23,6.85-4.05,9.24-1.4,4.11-2.31,11.16-3.71,15.81-.9,2.97-5.13,3.13-4.1-.5,1.19-4.21-1.22-10.64-13.19-8.24-13.16,2.64-12.16,3.69-21.74,8.52-6.05,3.05-11.26,4.47-16.69,6.29-11.7,3.91-9.76-6.99-8.8-9.74,3.77-10.81,5.59-24.8,14.53-32.89,8.71-7.87,22.51-13.31,28.58-22.9,1.64-2.58,4.82-5.88,7.13-6.71,4.25-1.53,2.43-4.21,1.05-4.31-10.89-.75-19.47,2.65-29.62,4.71-9.69,1.96-22.64-.6-30.99,4.6-5.48,3.42-2.5,11.46-2.39,15.92.21,8.92-13.86,17.57-19.12,25.4-2.62,3.89.89,9.57-.45,13.42-2.55,7.27-1.98,11.48-.93,18.73,1.18,8.12,1.2,14.4,20.07,11.26ZM479.92,76.56c.3-.73-1.57-3.09-1.14-3.61,1.14-1.37,1.65-3.25,3.22-4.19.71-.42,3.39-1.87,3.87-2.48.97-1.23,4.86-.93,6.58-2.07,1.99-1.31,5.69-1.02,8.22-1.91,1.72-.6,2.06.35,2.2,1.18,0,.02,0,.04,0,.06.25,1.65-.5,3.49-1.71,5.08-1.13,1.49-3.21,2.91-4.54,4.28-1.91,1.97-4.62,3.56-7.65,5.18-2.57,1.37-9.69-.02-9.06-1.53Z"/>
    <path class="cls-1" d="M1383.99,347.16c-3.49-6.26-9.23-12.45-13.47-16.81-4.22-4.34-7.68-6.36-11.24-9.97-5.41-5.47-9.39-11.92-14.37-17.03-4.95-5.09-9.3-7.19-14.75-11.03-3.88-2.73-8.08-5.62-11.92-8.58-3.83-2.96-9.21-6.12-13.07-8.17-5.36-2.85-12.08-4.97-16.67-6.14-5.81-1.49-9.27-2.45-14.25-2.43-3.56.01-5.89.01-9.62-.45-3.73-.46-10.3-2.88-13.11-5.16-5.27-4.29-5.95-10.51-5.08-14.92.86-4.4,1.71-5.64,3.77-8.6,2.06-2.95,4.81-4.96,7.76-7.07,2.95-2.1,7.85-7.19,12.09-3.78,5.19,4.18,2.52,12.02,3.68,16.74,1.44,5.85,6.42,8.56,11.04,9.46,4.62.9,8.63-.78,13.05-.19,4.43.59,8.46,2.68,12.23,5.04,3.78,2.37,7.21,6.72,10.93,7.47,3.72.75,3.55-3.55,5.38-5.8,1.83-2.25,4.08-4.05,7.24-5.32,3.16-1.26,7.46-1.8,11.15-2.28.07,0-.25-.54.02-.64,4.75-1.56,6.05-5.58,6.54-10.72.34-3.53,1.67-6.67,2.59-9.88.92-3.2,5.15-4.73.96-7.85-7.8-5.8-16.74-10.87-25.37-15.34-12.46-6.44-25.94-11.87-38.64-18.14-8.37-4.14-15.18-8.42-21.89-11.19-6.69-2.76-12.15-3.8-17.28-4.38-6.9-.77-11.34-.05-17.05.46-5.71.51-10.19,1.82-15.62,1.99-3.36.1-6.96-.04-9.81.77-5.19,1.48-8.45,4.2-12.11,7.58-4.45,4.1-9.18,5.99-12.76,11.41-1.75,2.65-2.83,6.36-1.54,10.35.08.25.92.81,1.55,1.17,2.02,1.14,4.96,1.62,6.86,3.31.28.25.61.22.7.48,1.31,3.59,1.39,4.6,1.24,8.62-.33,9.1,2.1,20.76,6.11,28.91,2.1,4.27,6.49,12.76,10.05,18.13,3.58,5.4,8.95,11.89,14.23,16.03,6.96,5.44,14.12,10.35,21.6,14.83,7.51,4.5,13.38,6.13,21.44,7.37,5.11.78,9.52-.34,14.55-.34,4.02,0,7.46.67,11.76,2.23,5.41,1.95,8.96,5.27,13.11,10.06,5.86,6.77,17.34,9.55,21.74,17.43,3.71,6.63-2.6,8.42-6.77,10.17-4.17,1.75-9.7,2.88-14.08,5.01-1.57.76-6.67,2.81-6.48-1.64.11-2.46,2.78-4.38,1.42-8.1-1.35-3.71-6.66-7.15-10.71-9.56-3.26-1.94-8.3-5.09-12.23-6.23-3.92-1.13-7.22-1.73-11.38-3.23-5.86-2.11-13.82-4.69-19.66-5.97-5.83-1.27-12.29-2.24-17.15-1.74-6.34.65-10.34,3.38-15.44,5.6-5.11,2.22-7.03,7.93-9.98,11.74-2.95,3.82-5.72,4.94-8.82,8.08-.03.03-.02-.02-.06.05-.04.07-.07.08-.14.14-.91.93-3.01,1.69-2.6,3.43,0,0-.03.02-.05.05-.49.65-1.63,2.38-1.93,2.85-.3.47-.21.3-.25.41-1.64,3.85-3.5,7.12-3.83,11.71-.51,7.05,3.21,14.59,4.64,21.27,1.62,7.62,6.5,11.48,14.02,15.33,4.72,2.42,13.48,5.53,19.52,7.15,7.24,1.95,15.69,2.78,22.76,2.24,7.06-.53,13.32-1.53,20.29-1.57,5.23-.03,10.98.15,16.13,1.14,5.16,1,11.51,2.87,15.97,4.04,6.37,1.67,12.53,1.52,17.5.93,6.32-.74,10.89-2.32,15.58-4.5,4.68-2.18,8.07-2.67,12.7-4.23,2.55-.86,4.91-1.43,7.83-1.3,6.98.3,13.26.76,19.92-.7,6.66-1.46,17.38,1.86,22.94-1.65,5.54-3.51,2.21-15.96.3-24.44-1.3-5.8-10.22-17.78-13.73-24.08ZM1292.92,368.16c-3.81.47-11.51,2.02-15.42-.05-2.52-1.34,1.04-8.35,3.53-9.91,2.49-1.56,9.43-3.68,12.36-5.92,1.25-.95-1.44,4.44-.67,5.51,1.56,2.17,4.21,1.06,6.01,3.65,2.71,3.91-2,6.25-5.81,6.72Z"/>
    <path class="cls-1" d="M395.14,395.02c10.64-10.23,22.98-26.26,24.86-41.29,1.19-9.49-4.07-22.27-14.08-24.08-2.84-.51-8,.6-12.13.61-4.13.01-6.97-.41-10.93-2.16-2.61-1.15-6.14-1.53-9.21-3.51-2.14-1.38-4.63-4.87-7.05-6.73-2.43-1.87-6.16-2.5-8.46-4.82-2.29-2.32-4.5-4.95-6.32-7.8-1.82-2.84-4.04-6.36-4.58-9.85-.71-4.55-.14-9.88,3.52-13.44,3.94-3.82,9.25-4.49,14.19-6.41,4.94-1.93,9.11-3.18,14.84-3.13,1.06,0,3.63-1.69,4.68-3.86,6.31-13.15,8.99-31.96,6.97-46.06-1.55-10.82-1.23-11.02-4.72-16.88-3.09-5.17-8.19-3.96-11.91-7.66-.49-.49-1.1-.61-1.63-.98-3.63-2.51-6.99-4.78-10.7-7.28-3.71-2.51-7.38-5.92-10.71-8.99-2.3-2.11-3.39-5.07-5.2-7.33-.61-.77-2.09-.15-3.05-.11-4.15.14-9.06,2.23-12.9,3.78-3.84,1.55-7.17,2.48-10.42,4.78-3.25,2.29-5.82,4.58-8.6,7.37-2.78,2.79-5.45,5.31-8.1,8.34-2.65,3.03-4.2,7.24-7.14,10.13-2.93,2.88-5.72,5.21-9.43,7.3-5.47,3.07-3.66-3.38-1.51-7.59,1.23-2.4,5.17-8.42,6.56-10.66,2.01-3.23,4.5-9.99,5.22-11.78,2-5.02,4.04-6.79,4.89-10.99.39-1.91.25-2.67-.99-3.76-1.25-1.09-2.71-1.99-4.8-2.2-4.51-.44-9.35.74-14.03,3.08-4.68,2.34-10.76,5.11-15.3,6.97-4.54,1.86-7.62,4.05-11.38,6.73-3.76,2.68-6.32,6.1-9.39,9.45-3.06,3.35-7.09,6-9.63,9.68-3.44,5-4.02,10.21-3.92,15.44.1,5.23,1.94,10.01,2.92,14.5.97,4.5,1.48,8.04,1.66,12.46.04,1.05-.1,2-.04,2.86.34,4.99-.03,9.9-.58,14.92-.55,5.01-.69,10.19-2.36,14.99-1.67,4.79-4.37,8.52-6.72,12.91-.21.39-.42.75-.64,1.15-2.49,4.68-4.25,9.52-6.95,14.17-2.7,4.64-7.62,9.19-9.1,13.55-1.5,4.44-2.73,10.55-6.79,14.9-4.05,4.34-8.56,7.2-12.71,11.47-4.15,4.28-9.59,9.95-9.66,14.46-.06,4.05,2.82,9.83,4.95,14.67,2.12,4.84,4.47,7.98,9.43,10.67,3.85,2.09,10.05,2.94,14.3,3.42,4.49.52,8.69,2.95,12.54,6.63,3.85,3.69,5.57,7.22,12.32,7.89,3.52.35,10.97-1.03,15.29-2.14,4.32-1.11,9.57-4.65,12.29-7.48,4.56-4.76,4.16-7.61,4.18-12.94.01-5.33,1.35-9.28,3.81-14.36,1.88-3.88.55-7.86.3-11.73-.26-3.87.57-8.29-.63-11.91-1.19-3.62-4.02-6.22-5.41-9.67-.66-1.63-1.79-4.69-1.79-4.69.14-.14,5.33,3.29,6.82,4.33,1.9,1.33,1.05-.61,5.38.86,10.45,3.55,22.75,5.9,33.89,7.53,8.05,1.18,7.16,2.93,11.47,4.19,4.32,1.26,6.58,1.46,9.84,3.23,3.25,1.76,5.85,2.89,8.37,5.35,2.53,2.46,3.45,5.84,5.48,8.81,2.04,2.97,3.94,5.88,5.72,9.27,1.78,3.39,2.7,7.87,4.7,11.3,2,3.43,5.56,6.97,7.68,10.14,2.12,3.17,1.91,11.78,6.61,11.28,8.53-.91,19.71-5.3,25.97-11.33ZM280.23,293.83c-5.01-.44-8.32-.29-10.42-4.93-2.1-4.64,1.02-9.41,4.83-14.54,2.46-3.32,8.06-9.46,11.3-13.14.19-.22.49-.55.72-.81,4.28-4.79,9.2-9.52,13.95-13.66,4.74-4.14,9.71-7.18,14.89-9.94,3.82-2.04,7.45-4.16,11.35-4.32,3.89-.16,8.45.82,10.24,3.79,1.79,2.98,2.15,5.81-.1,8.83-1.31,1.75-2.53,1.09-3.12,4.34-1.05,5.74-2.42,11.62-5.3,17.72-1.5,3.18-4.78,6.88-7.75,9.95-1.15,1.19-2.92,3.03-4.76,4.62-5.4,4.69-11.39,9.83-18.15,12.24-.13.04.41-.9.09-.85-5.61.95-12.76,1.13-17.77.69Z"/>
    <path class="cls-1" d="M580.84,207.24c-5-13.17-17.92-26.23-29.77-33.93-17.72-11.5-55.04-11.96-72.91,0-1.24.83-4.29,3.86-4.29,3.86-.29-.14-.67-7.91-2.91-9.25-1.51-.91-3.89-.57-6.71.36-1.73.57-3.85,1.21-6.13,2.61-1.7,1.05-3.58,3.11-5.51,4.27-1.51.91-3.64,1.61-5.55,1.94-1.81.31-3.63,1.16-5.41,1.38-1.77.22-3.51.23-5.13.7-1.71.5-3.62.03-4.99,1.23-1.59,1.39-2.38,4.41-2.85,6.98-.49,2.66-.25,5.96-.67,8.76-.4,2.67-1.37,5.28-2.6,6.95-1.47,2-2.4,4.15-2.75,6.48-.42,2.79-.34,5.94.18,9,.46,2.69-2.71,6.19-2.02,9.13.67,2.85,1.04,6.03,1.48,9.07.45,3.08.63,6.38.56,9.36-.05,2.02.23,5.99.04,10.52-.13,3.14-.9,6.32-1.19,9.94-.26,3.35,0,7.23-.4,10.56-.41,3.43-1.08,6.87-1.5,9.68-3.95,26.21-6.11,55.84-4.23,83.4.04.57.3,1.42.33,2.15.16,3.22.23,7.34.56,11,.37,4.04,1.09,8.12,2.17,11.45,1.06,3.24,2.55,6.78,4.49,8.57,1.36,1.25,3.62,1.03,4.73.64.93-.33,2.63-1.18,3.87-2.15,1.24-.97,2.4-2.48,3.88-2.73,1.4-.24,2.94-.67,4.73.29,1.56.84,3.74,4.87,5.44,5.75,1.29.67,2.15-5.67,2.3-5.79,0,0,.17.03.22.01,5.35-1.66,12.74-10.06,20.32-11.76,6.07-1.36,12.51,1.23,18.58-.77,14.58-4.8,31.17-13.82,41.08-25.72,19.66-23.59,39.19-50.63,50.31-80.14,1.52-4.03,5.54-13.98,6.3-17.52,3.52-16.32,1.82-40.76-4.07-56.28ZM510.13,305.04c-4.93.21-4.84-.25-6.85-7.58-2.31-8.46-1.09-7.74-5.34-10.24-2.2-1.3-5.37,2.77-7.09,5.05-3.72,4.93-10.24,9.04-12.28,17.03-1.3,5.11-4.17,8.96-6.79,11.42-2.78,2.6-11.16,14.07-11.16,14.07-.47-.17-.08-20.84-.13-21.62-.26-4.05.39-7.9.42-11.75.03-3.97-.12-7.9.12-11.53.25-3.74.33-7.67.78-11.13.32-2.47.68-4.99,1.34-6.87,2.83-8.08,11.06-23.26,11.47-24.48,1.57-4.77,10.51-7.38,12.3-12,4.29-11.06,10.62-18.24,17.8-18,11.14.36,23.87-.7,27.07,14.17,2.52,11.7,4.28,24.9,3.37,36.54-1.01,13-9.79,36.28-25.03,36.93Z"/>
    <path class="cls-1" d="M944.03,165.67c-.48,3.51-2.25,6.12-4.57,8.31-1.48,1.4-2.75,2.36-3.35,4.58-.6,2.23-1.08,5.22-.47,7.85.61,2.63,2.43,4.64,2.89,7.36,1.03,6.24-.22,12.63-2.53,17.68-1.7,3.71-3.29,7.2-5.15,10.62-1.87,3.43-3.22,6.91-4.76,10.45-2,4.61-3.37,9.55-4.58,14.37-.83,3.29.55,6.33-.09,9.34-1.44,6.84-1.97,13.71-2.51,20.8-.54,7.1-.95,14.19-.68,21.41.11,2.99,2.59,4.59,4.49,6.91,3.42,4.17,7.38,6.62,11.25,10.68,3.86,4.05,7.32,9.13,11.32,13.45,3.49,3.76,8.29,5.9,11.47,10.49,3.17,4.57,5.07,9.93,6.18,15.31.47,2.29-1.08,4.04-2.17,5.92-1.09,1.89-2.41,4.06-3.83,5.89-3.45,4.43-9.04,5.75-13.76,7.41-4.86,1.71-10.56,2.78-17.2,1.44-5.58-1.13-10.55,1.03-15.96.9-5.43-.13-10.84-2.47-15.89-.5-5.06,1.98-9.82,3.95-13.88,7.51-2.87,2.52-9.9,8.26-13.65,2.95-1.53-2.16-1.18-3.48-4.27-3.5-7.35-.05-9.18-6.08-7.15-11.82,2.02-5.73,1.54-13.28,3.51-18.94,1.96-5.65,3.68-10.88,3.93-16.8.32-7.5-1.48-14.81-3.01-21.62-.82-3.65-1.31-7.27-3.68-11.33-1.54-2.64-1.84-5.24-4.85-7.49-3.02-2.25-3.1-6.87-5.05-9.89-1.95-3.02-2.63-6.32-4.52-9.23-3.36-5.16-7.1-10.36-9.72-15.7-.36-.73-.81-1.25-1.23-1.24-.41,0-.38-.11-.22.72.16.83,1.49,3.38,1.56,4.6.07,1.22-1.05,1.59-.83,2.87.22,1.27,1.32,2.36,1.31,3.9-.03,2.82-1.91,4.97-2.15,7.93-.25,2.96-.27,6.76-1.21,9.5-.93,2.74-2.11,6.07-2.85,8.37-.74,2.29.17,4.44.03,6.19-.14,1.75-.68,2.15-1.13,3.34-3.34,8.84-2.56,17.67-1.15,27.48.41,2.81.62,5.51,1.01,8.28.39,2.76,2.61,5.28,3.11,7.94,1.38,7.28,4.21,14.51,5.29,21.72.71,4.77.63,9.78-.08,14.39-.72,4.62-2.12,8.25-6.27,11.05-2.85,1.93-8.18,2.03-11.69,2.89-7.9,1.92-16.17,3.97-23.11,7.05-2.07.92-1.78,2.92-3.57,2.9-1.8-.03-2.82-.91-3.89-1.9-4.32-3.96-7.48-7.95-13.38-9.34-2.4-.57-5.28.25-7.36-.98-6.66-3.97-12.65-8.63-19.63-12.06-1.97-.97-2.79-3.44-4.3-4.73-1.51-1.29-3.67-2.47-3.51-4.38.4-4.96,4.05-8.47,4.11-13.62.03-3.06,1.86-5.15,3.93-7.22,4.78-4.77,5.38-11.81,10.02-16.52,3.66-3.71,4.37-8.76,7.63-12.64,1.97-2.34,4.01-4.48,4.93-7.4,1.91-6.03,4.24-12.04,5.83-17.98,2.37-8.88,6.26-16.73,7.48-25.8.49-3.65,2.16-7.88,2.64-10.94.48-3.06-.37-5.25-.14-7.65.23-2.39,1.8-4.39,1.25-6.45-1.28-4.86-3.15-9.16-6.66-12.86-2.6-2.74-6.66-4.02-7.94-7.28-1.28-3.26.49-5.46.2-8.49-.09-.9-.13-1.82-.1-2.72.14-4.25,2.97-7.25,4.4-10.91,3.13-8.03,7.16-16.96,9.48-23.41,1.77-4.95,4.07-13.78,8.31-18.91,2.7-3.27,5.62-7.24,9.4-9.05,3.77-1.81,9.02,2.15,13.15,1.22,4.12-.93,7.7,2.82,11.7,3.28,4,.45,7.84,1.84,10.08,5.63,1.07,1.81,1.37,3.9,1.99,5.86,1.17,3.65,2.42,6.99,4.63,10.42,2.21,3.43,3.26,6.99,5.44,10.54,2.18,3.55,6.05,5.6,8.16,9.36,1.1,1.96.35,3.64.16,5.71-.45,5.1,1.08,12.82,3.93,15.35,1.98,1.75,3.8-3.13,4.58-5.43.38-1.12,1.28-2.06,1.39-3.32.81-9.34,1.77-18.12,5.68-26.08,1.44-2.92,2.68-6.1,3.95-9.06.59-1.37,2.43-1.55,2.88-2.99.45-1.45.43-3.47,1.17-4.57.74-1.1,1.18-2.94.97-3.86-.21-.93-.09-.47-.07-.84.02-.36.22-.33.39-.49.17-.15.61-.21.84-.22,2.35-.04,4.56.51,6.96,1.04,7.09,1.58,13.6,2.28,20.23,1.19,2.06-.34,2.81-2.29,4.53-3.79,1.72-1.5,4.85-2.85,7.3-3.82,5.73-2.28,11.68-3.41,18.39-2.88,3.06.24,3.96,3.24,4.25,5.8.02.12.02.36,0,.49Z"/>
    <path class="cls-1" d="M595.29,398.42c5.52,2.79,8.66,9.13,18,4.09,5.69-3.07,11.54-7.62,16.3-10.55,4.13-2.54,9.4-3.02,13.36-4.9,6.48-3.07,15.07-11.66,21.01-15.83,10.2-7.22,21.81-11.66,33.83-14.77,22.37-5.87,44.95-11.08,68.03-13.21,9.56-10.66,19.67-25.3,18.61-40.24-.12-.72-4.96-2.56-5.43-3.19-1.91-2.85-2.83-8.98-4.22-12.45-1.78-4.42-3.4-8.69-8.44-9.57-6.76-1.18-12.96,7.37-18.89,12-4.42,3.44-15.89,12.45-20,14.69-12.28,6.53-26.34,10.06-39.66,13.72-11.67,2.47-17.92,8.67-27.2,15.44-2.55,1.81-12.46,7.7-15.01,8.51-6.82,2.18-9.46-1.04-11.85-5.52-3.64-6.79-4.69-15.32,5.5-22.11,10.7-6.82,22.32-11.97,33.28-18.34,2.4-1.45,4.25-3.42,6.27-4.68,22.58-14.05,44.64-28.15,65.16-45.13,3.56-3.08,6.24-5.48,9.87-8.51-.21-13.24-3.04-27.84-10.95-38.76-7.3-10.1-4.82-26.16-20.53-27.04-14.19-1.57-25.32-12.06-38.36-16.85-2.65-.9-15.68,4.53-20.18,5.27-7.95,1.31-10.39,6.89-13.88,12.45-5.95,5.98-19.14,17.36-28.08,15.58-2.64-4.48-4.78-15.17-8.13-19.69-1.32-1.78-8.35-7.89-10.56-8.07-13.08-1.12-9.42,11.4-10.22,19.19.73,15.75,2.95,31.5,4.06,47.24.12,1.94-3,9.74-2.89,11.69.26,4.79,2.43,9.34,2.7,13.9.69,12.32,1.98,24.88,1.33,37.23-1.12,6.97-7.68,12.22-11.44,18.18-5.14,7.94-8.41,18.18-10.45,27.36-1.74,6.59-3.98,20.74-6.71,26.52-.92,1.95-2.66,2.27-3.81,4.01-1.43,2.17-4.92,12.85-4.85,15,1.54,15.02,24.12,13.07,34.41,17.37ZM653.73,225.8c2.7-3.47,6.42-4.52,9.65-7.05,5.77-4.51,9.43-10.08,16.69-14.99,1.11-.75,2.1-1.76,3.41-2.41,3.03-1.5,10.86,1.82,13.67,3.21,4.56,2.26,11.81,6.2,11.53,13.16-1.61,2.65-2.17,6.67-3.16,9.01-.46,1.09-4.08,8.2-4.59,8.96-6.8,8.76-18.32,6.32-27.94,7.58-5.75,1.4-14.72,8.19-19.73,5.15-5.68-3.45-4.63-16.07.47-22.62Z"/>
    <path class="cls-1" d="M1204.21,291.84c-4.21-6.85-10.14-19.15-19.72-18.63-4.95,1.66-4.65,6.31-7.79,9.88-3.14,3.58-7.91,7.29-9.57,12.18-1.66,4.89-5.26,6.67-7.87,10.96-3.25,5.35-10.42,10.52-14.36,14.65-3.94,4.13-6.08,6.34-9.23,10.34-3.15,4-3.96,7.43-6.78,12.28-2.21,3.82-4.23,6.68-9.78,4.63-5.55-2.05-10.41-5.31-13.16-10.59-2.75-5.28-4.54-10.42-7.17-15.66-2.01-4-6.59-12.25-.91-15.41,3.52-1.96,9.67-2.57,13.92-4.16,4.25-1.59,9.25-3.15,12.58-6.59,6.28-2.11,12.74-4.34,18.28-7.99,5.54-3.65,9.64-8.38,13.92-13.35,4.32-2.34,8.5-4.38,11.59-8.49,3.09-4.12,3.53-9.04,3.17-14.04-.56-7.79-.03-13.45,1.38-21.64.72-4.16,1.31-9.81,1.84-15.26.4-4.1,1.18-10.26.85-15.25-.34-4.99-.69-10.52-2.67-15.63-1.97-5.11-5.84-9.21-10.34-12.38-.11-.08.39-.63.16-.78-3.83-2.48-8.34-3.65-12.59-4.59-4.25-.94-8.62-.89-12.48-.04-5.44,1.19-9.8,2.32-15.12,2.97-5.32.66-10.4.42-15.9.39-5.51-.03-11.65-.88-17.25-1.31-5.59-.44-11.87-.11-16.93,1.58-6.26,2.09-10.83,4.39-15.29,9.01-4.46,4.62-5.73,9.97-7.54,16.05-1.23,4.11-3.92,8.46-4.77,12.73-.84,4.27-1.48,10.18-1.18,13.96.3,3.78.89,11.58.4,13.39-1.46,5.36-6.57,10.08-5.23,12.61,1.34,2.53.46,1.38.55,3.06.39,7.67-.08,15.6-1.47,23.02-1.04,5.54-3.14,9.8-3.68,15.4-.53,5.6.51,10.48,2.72,15.9,2.21,5.41,5,12.07,7.81,17.13,1.1,1.99,2.17,2.72,3.78,3.76,3.02,1.95,4.18,2.04,5.87,5.84,2.36,5.32,4.76,11.78,7.19,17.56,2.43,5.78,5.66,11.62,8.64,17.26,2.98,5.63,6.25,11.27,10.27,16.26,4.02,4.99,8.68,9.67,14.05,13.04,5.37,3.37,11.19,5.28,17.25,6.28,6.06,1,12.32,1.45,18.09.02,5.78-1.43,10.84-5.44,14.89-8.73,4.05-3.29,6.19-6.23,8.89-10,2.7-3.77,4.69-7.24,7.85-10.58,3.15-3.34,6.78-6.75,10.45-9.47,3.67-2.72,8.41-4.99,11.94-7.22,3.53-2.22,6.64-2.96,9.66-5.32,3.02-2.37,3.49-6.55,7.02-8.62,0,0-.04-.03-.02-.07,1.24-3.1,1.73-6.79,2.77-9.99,1.7-5.22,2.94-15.19,3.8-19.46,1.26-6.25-1.31-18.64-2.81-20.9ZM1088.54,251.84c2.08-5.58,3.13-9.33,5.48-13.68,2.35-4.35,5.41-8.14,8.14-11.45,2.73-3.3,4.66-5.92,6.62-9.11,1.97-3.18,2.67-6.89,4.87-9.4,2.2-2.51,4.72-.84,7.31-2.95,4.92-4.01,8.17-5.75,14.89-4,.05.01-.13.27.06.39,2.65,1.66,1.82,2.34,1.84,5.6.02,3.26,2.11,3.77,1.45,8.82-.34,2.64-4.6,14.01-6.02,17.85-1.42,3.83-4.97,3.23-6.37,6.95-.77,2.06-.02,4.92-1.13,7.26-3.63,7.69-9.77,12.43-17.75,15.84-5.8,2.48-13.06,5.25-19.49,6.05-10.91,1.36-1.33-14.31.11-18.17Z"/>
  </g>
  <g>
    <path class="cls-1" d="M6.92,499.6c0-4.29.43-7.86,1.29-10.72s1.95-5.24,3.29-7.15c1.33-1.91,2.75-3.51,4.25-4.82s2.92-2.56,4.25-3.75c1.33-1.19,2.43-2.5,3.29-3.93s1.29-3.22,1.29-5.36c0-1.81-.39-3.33-1.18-4.57-.79-1.24-1.87-1.86-3.25-1.86s-2.41.71-3.22,2.14c-.81,1.43-1.22,3.57-1.22,6.43H6.92c0-6.43,1.19-11.5,3.57-15.19,2.38-3.69,5.6-5.54,9.65-5.54,2.72,0,5.06.81,7.04,2.43,1.98,1.62,3.5,3.82,4.57,6.61,1.07,2.79,1.61,5.97,1.61,9.54,0,2.72-.36,5.07-1.07,7.08-.71,2-1.66,3.74-2.82,5.22-1.17,1.48-2.42,2.81-3.75,4-1.33,1.19-2.61,2.36-3.82,3.5-1.22,1.14-2.25,2.36-3.11,3.65s-1.41,2.76-1.64,4.43h16.23v11.44H6.92v-3.57Z"/>
    <path class="cls-1" d="M50.88,468.86v11.44h-12.87v-11.44h12.87Z"/>
    <path class="cls-1" d="M67.68,479.58h-4.29v-11.44h4.29c1.29,0,2.32-.52,3.11-1.57.79-1.05,1.18-2.43,1.18-4.15s-.39-3.1-1.18-4.15c-.79-1.05-1.82-1.57-3.11-1.57s-2.32.55-3.11,1.64c-.79,1.1-1.18,2.69-1.18,4.79h-8.93c0-5.72,1.23-10.13,3.68-13.22,2.45-3.1,5.63-4.65,9.54-4.65,2.62,0,4.92.68,6.9,2.04,1.98,1.36,3.53,3.26,4.65,5.72,1.12,2.45,1.68,5.35,1.68,8.68,0,2.53-.37,4.8-1.11,6.83-.74,2.03-1.75,3.73-3.04,5.11,3.24,3,4.86,7.36,4.86,13.08,0,3.43-.56,6.43-1.68,9.01-1.12,2.57-2.73,4.57-4.82,6-2.1,1.43-4.57,2.14-7.43,2.14-4.29,0-7.68-1.63-10.19-4.9-2.5-3.26-3.75-7.83-3.75-13.69h8.93c0,2.48.46,4.29,1.39,5.43.93,1.14,2.13,1.72,3.61,1.72s2.74-.54,3.65-1.61c.91-1.07,1.36-2.68,1.36-4.82s-.45-3.75-1.36-4.82c-.91-1.07-2.12-1.61-3.65-1.61Z"/>
    <path class="cls-1" d="M99.48,468.86v11.44h-12.87v-11.44h12.87Z"/>
    <path class="cls-1" d="M115.71,445.99h11.51v35.02h5.79v11.44h-5.79v10.72h-8.65v-10.72h-15.15v-12.87l12.29-33.59ZM118.57,460.29h-.21l-7.58,20.73h7.79v-20.73Z"/>
    <path class="cls-1" d="M149.8,468.86v11.44h-12.87v-11.44h12.87Z"/>
    <path class="cls-1" d="M168.17,503.89c-4.19,0-7.53-1.63-10.01-4.9-2.48-3.26-3.72-7.83-3.72-13.69h8.79c0,2.48.45,4.29,1.36,5.43.91,1.14,2.1,1.72,3.57,1.72s2.66-.63,3.54-1.89c.88-1.26,1.32-3.49,1.32-6.68s-.44-5.48-1.32-6.72c-.88-1.24-2.06-1.86-3.54-1.86-1,0-1.89.28-2.68.82-.79.55-1.37,1.47-1.75,2.75h-8.79l3-32.88h22.44v11.44h-14.72l-1.07,9.29h.36c.57-.86,1.32-1.55,2.25-2.07.93-.52,1.94-.79,3.04-.79,3.53,0,6.34,1.69,8.43,5.07,2.1,3.38,3.15,8.36,3.15,14.94s-1.23,11.56-3.68,14.94c-2.45,3.38-5.78,5.08-9.97,5.08Z"/>
    <path class="cls-1" d="M227,483.16c0,4.19-.46,7.84-1.39,10.94-.93,3.1-2.41,5.5-4.43,7.22-2.03,1.72-4.66,2.57-7.9,2.57s-5.87-.86-7.9-2.57c-2.03-1.72-3.5-4.12-4.43-7.22-.93-3.1-1.39-6.74-1.39-10.94h9.44c0,2.67.31,4.77.93,6.29.62,1.53,1.74,2.29,3.36,2.29s2.74-.76,3.36-2.29c.62-1.52.93-3.62.93-6.29v-37.17h9.44v37.17Z"/>
    <path class="cls-1" d="M232.43,480.3v-34.31h9.44v34.31c0,3.57.42,6.37,1.25,8.4.83,2.02,2.32,3.04,4.47,3.04s3.63-1.01,4.47-3.04c.83-2.02,1.25-4.83,1.25-8.4v-34.31h9.44v34.31c0,4.77-.53,8.91-1.57,12.44-1.05,3.53-2.68,6.27-4.9,8.22-2.22,1.95-5.11,2.93-8.68,2.93s-6.48-.98-8.72-2.93c-2.24-1.95-3.87-4.69-4.9-8.22-1.03-3.53-1.54-7.67-1.54-12.44Z"/>
    <path class="cls-1" d="M268.31,503.17v-57.18h9.44v45.75h16.3v11.44h-25.73Z"/>
    <path class="cls-1" d="M309.92,481.73v21.44h-9.44v-21.44l-12.15-35.74h10.01l5.07,15.73,1.72,5.72h.43l1.72-5.72,5.07-15.73h9.72l-12.15,35.74Z"/>
    <path class="cls-1" d="M338.51,499.6c0-4.29.43-7.86,1.29-10.72s1.95-5.24,3.29-7.15c1.33-1.91,2.75-3.51,4.25-4.82s2.92-2.56,4.25-3.75c1.33-1.19,2.43-2.5,3.29-3.93s1.29-3.22,1.29-5.36c0-1.81-.39-3.33-1.18-4.57-.79-1.24-1.87-1.86-3.25-1.86s-2.41.71-3.22,2.14c-.81,1.43-1.22,3.57-1.22,6.43h-8.79c0-6.43,1.19-11.5,3.57-15.19,2.38-3.69,5.6-5.54,9.65-5.54,2.72,0,5.06.81,7.04,2.43,1.98,1.62,3.5,3.82,4.57,6.61,1.07,2.79,1.61,5.97,1.61,9.54,0,2.72-.36,5.07-1.07,7.08-.71,2-1.66,3.74-2.82,5.22-1.17,1.48-2.42,2.81-3.75,4-1.33,1.19-2.61,2.36-3.82,3.5-1.22,1.14-2.25,2.36-3.11,3.65s-1.41,2.76-1.64,4.43h16.23v11.44h-26.45v-3.57Z"/>
    <path class="cls-1" d="M369.24,474.58c0-9.29,1.19-16.5,3.57-21.62,2.38-5.12,6.08-7.68,11.08-7.68s8.7,2.56,11.08,7.68c2.38,5.12,3.57,12.33,3.57,21.62s-1.19,16.5-3.57,21.62c-2.38,5.12-6.08,7.68-11.08,7.68s-8.7-2.56-11.08-7.68c-2.38-5.12-3.57-12.33-3.57-21.62ZM378.18,474.58c0,5.34.46,9.53,1.39,12.58.93,3.05,2.37,4.57,4.32,4.57s3.4-1.52,4.32-4.57c.93-3.05,1.39-7.24,1.39-12.58s-.46-9.59-1.39-12.62c-.93-3.03-2.37-4.54-4.32-4.54s-3.4,1.51-4.32,4.54-1.39,7.23-1.39,12.62Z"/>
    <path class="cls-1" d="M402.83,499.6c0-4.29.43-7.86,1.29-10.72s1.95-5.24,3.29-7.15c1.33-1.91,2.75-3.51,4.25-4.82s2.92-2.56,4.25-3.75c1.33-1.19,2.43-2.5,3.29-3.93s1.29-3.22,1.29-5.36c0-1.81-.39-3.33-1.18-4.57-.79-1.24-1.87-1.86-3.25-1.86s-2.41.71-3.22,2.14c-.81,1.43-1.22,3.57-1.22,6.43h-8.79c0-6.43,1.19-11.5,3.57-15.19,2.38-3.69,5.6-5.54,9.65-5.54,2.72,0,5.06.81,7.04,2.43,1.98,1.62,3.5,3.82,4.57,6.61,1.07,2.79,1.61,5.97,1.61,9.54,0,2.72-.36,5.07-1.07,7.08-.71,2-1.66,3.74-2.82,5.22-1.17,1.48-2.42,2.81-3.75,4-1.33,1.19-2.61,2.36-3.82,3.5-1.22,1.14-2.25,2.36-3.11,3.65s-1.41,2.76-1.64,4.43h16.23v11.44h-26.45v-3.57Z"/>
    <path class="cls-1" d="M442,468.86h.36c.71-1.43,1.69-2.5,2.93-3.22,1.24-.72,2.57-1.07,4-1.07,2.38,0,4.49.81,6.33,2.43,1.83,1.62,3.26,3.89,4.29,6.79,1.02,2.91,1.54,6.27,1.54,10.08s-.54,7.23-1.61,10.26c-1.07,3.03-2.62,5.41-4.65,7.15-2.03,1.74-4.47,2.61-7.33,2.61s-5.36-.95-7.5-2.86c-2.14-1.91-3.81-5-5-9.29-1.19-4.29-1.79-10.01-1.79-17.15,0-9.67,1.31-16.98,3.93-21.91,2.62-4.93,6.08-7.4,10.36-7.4,2.14,0,3.99.51,5.54,1.54,1.55,1.02,2.83,2.36,3.86,4,1.02,1.64,1.81,3.42,2.36,5.33.55,1.91.92,3.76,1.11,5.58h-8.58c-.33-1.81-.86-3.1-1.57-3.86s-1.62-1.14-2.72-1.14c-1.76,0-3.12,1.13-4.07,3.4-.95,2.26-1.55,5.18-1.79,8.76ZM447.87,492.45c1.81,0,3.22-.81,4.22-2.43,1-1.62,1.5-3.67,1.5-6.15s-.5-4.59-1.5-6.18c-1-1.6-2.41-2.4-4.22-2.4s-3.16.8-4.18,2.4c-1.03,1.6-1.54,3.66-1.54,6.18s.51,4.53,1.54,6.15c1.02,1.62,2.42,2.43,4.18,2.43Z"/>
  </g>
  <g>
    <path class="cls-1" d="M981.61,506.39v-57.18h9.44v45.75h16.3v11.44h-25.73Z"/>
    <path class="cls-1" d="M1011.63,506.39v-57.18h9.44v57.18h-9.44Z"/>
    <path class="cls-1" d="M1026.79,506.39v-57.18h26.45v11.44h-17.01v11.15h15.58v11.44h-15.58v11.72h17.73v11.44h-27.16ZM1044.73,449.21h-9.44l-4.57-7.15h10.72l3.29,7.15Z"/>
    <path class="cls-1" d="M1089.69,482.09c0,4.67-.55,8.9-1.64,12.69-1.1,3.79-2.8,6.79-5.11,9.01-2.31,2.22-5.3,3.32-8.97,3.32s-6.81-1.17-9.44-3.5c-2.62-2.33-4.63-5.69-6.04-10.08-1.41-4.38-2.11-9.63-2.11-15.73s.7-11.34,2.11-15.73c1.41-4.38,3.42-7.74,6.04-10.08,2.62-2.33,5.77-3.5,9.44-3.5,2.95,0,5.54.81,7.76,2.43,2.22,1.62,4,3.88,5.36,6.79,1.36,2.91,2.23,6.27,2.61,10.08h-9.44c-.19-2.14-.86-3.87-2-5.18-1.14-1.31-2.57-1.97-4.29-1.97-2.67,0-4.77,1.51-6.29,4.54-1.53,3.03-2.29,7.23-2.29,12.62s.76,9.53,2.29,12.58c1.52,3.05,3.62,4.57,6.29,4.57,2.1,0,3.63-.83,4.61-2.5.98-1.67,1.61-3.69,1.89-6.08h-6.5v-11.44h15.73v7.15Z"/>
    <path class="cls-1" d="M1093.97,506.39v-57.18h26.45v11.44h-17.01v11.15h15.58v11.44h-15.58v11.72h17.73v11.44h-27.16Z"/>
    <path class="cls-1" d="M1152.23,472.08v11.44h-12.87v-11.44h12.87Z"/>
    <path class="cls-1" d="M1201.91,489.95c0,5.34-1.29,9.41-3.86,12.22-2.57,2.81-6.43,4.22-11.58,4.22h-14.58v-57.18h14.58c4.86,0,8.53,1.37,11.01,4.11,2.48,2.74,3.72,6.61,3.72,11.62,0,5.39-1.6,9.39-4.79,12.01,3.67,2.57,5.5,6.91,5.5,13.01ZM1181.32,472.08h5.15c3.81,0,5.72-1.91,5.72-5.72s-1.91-5.72-5.72-5.72h-5.15v11.44ZM1181.32,482.09v12.87h5.15c4.29,0,6.43-2.14,6.43-6.43s-2.14-6.43-6.43-6.43h-5.15Z"/>
    <path class="cls-1" d="M1205.91,506.39v-57.18h26.45v11.44h-17.01v11.15h15.58v11.44h-15.58v11.72h17.73v11.44h-27.16Z"/>
    <path class="cls-1" d="M1237.36,506.39v-57.18h9.44v45.75h16.3v11.44h-25.73Z"/>
    <path class="cls-1" d="M1298.12,482.09c0,4.67-.55,8.9-1.64,12.69-1.1,3.79-2.8,6.79-5.11,9.01-2.31,2.22-5.3,3.32-8.97,3.32s-6.81-1.17-9.44-3.5c-2.62-2.33-4.63-5.69-6.04-10.08-1.41-4.38-2.11-9.63-2.11-15.73s.7-11.34,2.11-15.73c1.41-4.38,3.42-7.74,6.04-10.08,2.62-2.33,5.77-3.5,9.44-3.5,2.95,0,5.54.81,7.76,2.43,2.22,1.62,4,3.88,5.36,6.79,1.36,2.91,2.23,6.27,2.61,10.08h-9.44c-.19-2.14-.86-3.87-2-5.18-1.14-1.31-2.57-1.97-4.29-1.97-2.67,0-4.77,1.51-6.29,4.54-1.53,3.03-2.29,7.23-2.29,12.62s.76,9.53,2.29,12.58c1.52,3.05,3.62,4.57,6.29,4.57,2.1,0,3.63-.83,4.61-2.5.98-1.67,1.61-3.69,1.89-6.08h-6.5v-11.44h15.73v7.15Z"/>
    <path class="cls-1" d="M1302.4,506.39v-57.18h9.44v57.18h-9.44Z"/>
    <path class="cls-1" d="M1317.41,483.52v-34.31h9.44v34.31c0,3.57.42,6.37,1.25,8.4.83,2.02,2.32,3.04,4.47,3.04s3.63-1.01,4.47-3.04c.83-2.02,1.25-4.83,1.25-8.4v-34.31h9.44v34.31c0,4.77-.53,8.91-1.57,12.44-1.05,3.53-2.68,6.27-4.9,8.22-2.22,1.95-5.11,2.93-8.68,2.93s-6.48-.98-8.72-2.93c-2.24-1.95-3.87-4.69-4.9-8.22-1.03-3.53-1.54-7.67-1.54-12.44Z"/>
    <path class="cls-1" d="M1353.3,506.39v-57.18h16.15l4.72,32.88.79,5.72h.43l.79-5.72,4.72-32.88h16.15v57.18h-9.01v-42.89h-.43l-1.07,7.15-6.22,35.74h-10.29l-6.22-35.74-1.07-7.15h-.43v42.89h-9.01Z"/>
  </g>
  <rect class="cls-1" x="492.48" y="471.08" width="458.1" height="7.01"/>
</svg>